<svg width="246" height="35" viewBox="0 0 246 35" fill="none" xmlns="http://www.w3.org/2000/svg">
<g id="Capa_1" clip-path="url(#clip0_145_136)">
<path id="Vector" d="M20.1554 5.22327C19.4296 4.08143 18.4092 3.24327 17.1034 2.71183C14.3369 1.58517 11.5552 1.45762 8.74914 2.33526C6.14052 3.14913 3.7961 5.32956 3.96616 8.19631C4.13926 11.0995 6.8238 12.952 9.32613 14.0513C11.0996 14.8287 13.8115 15.9675 17.4769 17.4677C21.5037 19.1197 24.4798 22.4238 23.4746 27.0154C22.5423 31.2488 18.6856 33.4019 14.5403 34.0092C10.7322 34.565 6.44724 33.988 3.16141 31.85C1.35754 30.6718 0.315914 29.1473 0.0334908 27.2796C-0.488841 23.763 4.61604 23.3804 4.57352 26.7877C4.55834 27.9781 3.85987 28.7191 2.4842 29.0106C2.27769 29.0531 2.22911 29.1655 2.34147 29.3447C5.27199 34.1155 15.7581 34.486 19.2474 30.1373C21.0938 27.8414 20.5806 24.7986 18.2726 22.9795C17.1186 22.0745 16.0284 21.4034 14.9989 20.9752C11.0419 19.3202 8.36954 18.1753 6.99083 17.5375C5.78521 16.9757 4.65856 16.253 3.61086 15.3571C-1.01421 11.4244 0.221773 5.06839 5.30236 2.32008C9.50834 0.0333596 15.9342 0.115354 19.9398 3.14002C21.5432 4.35171 22.3632 5.87011 22.3996 7.70131C22.4634 10.8171 17.7442 10.732 17.8596 7.61021C17.9082 6.37119 18.637 5.65146 20.0491 5.45711C20.204 5.43585 20.2404 5.35689 20.1554 5.22327Z" fill="white"/>
<path id="Vector_2" d="M211.581 6.01578C209.009 1.47574 202.076 1.26013 197.687 2.58114C191.893 4.32731 188.902 9.44737 188.361 15.272C187.897 20.3252 188.853 25.8947 192.409 29.5025C195.704 32.8521 200.007 33.9453 205.313 32.7883C207.259 32.3601 208.851 31.3337 210.084 29.7029C210.484 29.1745 210.682 28.4851 210.667 27.6439C210.639 26.1559 210.639 23.6809 210.658 20.2098C210.664 20.0519 210.743 19.973 210.894 19.973H214.508C214.615 19.973 214.7 20.058 214.7 20.1643V33.2195C214.7 33.9544 214.466 34.0395 214.001 33.4625L211.733 30.6534C211.648 30.5471 211.496 30.538 211.396 30.6322C209.75 32.2022 207.736 33.2408 205.343 33.7479C200.994 34.6681 196.026 34.1124 192.169 31.8287C186.8 28.6491 184.055 23.7993 183.937 17.2702C183.894 15.0321 184.401 12.7423 185.464 10.3888C187.702 5.41145 192.309 2.12562 197.69 1.11436C202.631 0.18206 209.525 0.956447 212.562 5.20798C213.582 6.63528 213.925 8.02918 213.603 9.37753C213.069 11.6157 209.901 11.6885 209.042 9.57796C208.337 7.83786 209.604 6.26783 211.465 6.21317C211.566 6.21317 211.629 6.10081 211.581 6.01274V6.01578Z" fill="white"/>
<path id="Vector_3" d="M34.6348 32.5847C34.6348 32.7426 34.7138 32.8277 34.8778 32.8277L53.0713 32.8338C53.3568 32.8338 53.4934 32.9917 53.4843 33.2984L53.4782 33.4624C53.4691 33.6628 53.3568 33.763 53.1563 33.763L30.6293 33.7691C30.5503 33.7691 30.4805 33.6992 30.4805 33.6203V1.37542C30.4805 1.23876 30.5503 1.16892 30.687 1.16892L52.6796 1.16284C52.8861 1.16284 52.9863 1.26913 52.9802 1.47563V1.78843C52.9802 1.99493 52.88 2.09514 52.6826 2.09514L34.8383 2.10425C34.7259 2.10425 34.6318 2.19536 34.6318 2.31076L34.6257 16.4471C34.6257 16.6597 34.7381 16.769 34.9476 16.769H48.8987C49.0901 16.769 49.2419 16.9117 49.248 17.1031L49.2571 17.3399C49.2662 17.5768 49.1569 17.6983 48.92 17.6983H34.817C34.6956 17.6983 34.6318 17.756 34.6318 17.8835V32.5787L34.6348 32.5847Z" fill="white"/>
<path id="Vector_4" d="M81.3896 33.0068V33.5838C81.3896 33.684 81.3107 33.763 81.2105 33.763H59.7645C59.6643 33.763 59.5853 33.684 59.5853 33.5838V1.35715C59.5853 1.25694 59.6643 1.17798 59.7645 1.17798H63.5514C63.6516 1.17798 63.7306 1.25694 63.7306 1.35715V32.6485C63.7306 32.7487 63.8095 32.8276 63.9097 32.8276H81.2074C81.3076 32.8276 81.3866 32.9066 81.3866 33.0068H81.3896Z" fill="white"/>
<path id="Vector_5" d="M101.323 29.2715L113.501 1.49982C113.601 1.27813 113.771 1.16577 114.02 1.16577H114.527C114.776 1.16577 114.855 1.28117 114.755 1.50893L100.88 33.1434C100.43 34.1698 98.9697 34.1698 98.5203 33.1373L84.6178 1.32369C84.5874 1.25384 84.639 1.17488 84.7119 1.17488H88.7387C88.8237 1.17488 88.8966 1.22347 88.93 1.29635L101.156 29.2715C101.187 29.3444 101.293 29.3444 101.326 29.2715H101.323Z" fill="white"/>
<path id="Vector_6" d="M124.573 32.5847C124.573 32.7426 124.652 32.8277 124.816 32.8277L143.01 32.8338C143.295 32.8338 143.432 32.9886 143.423 33.2984L143.417 33.4624C143.407 33.6628 143.295 33.763 143.095 33.763L120.568 33.7691C120.489 33.7691 120.419 33.7053 120.419 33.6203L120.413 1.37542C120.413 1.23876 120.483 1.16892 120.619 1.16892L142.615 1.16284C142.815 1.16284 142.915 1.26913 142.915 1.47563V1.78843C142.909 1.99493 142.815 2.09514 142.618 2.09514L124.774 2.10425C124.658 2.10425 124.567 2.19536 124.567 2.31076L124.561 16.4471C124.561 16.6597 124.667 16.769 124.883 16.769L138.834 16.7629C139.025 16.7629 139.177 16.9117 139.183 17.097L139.192 17.3339C139.201 17.5768 139.092 17.6922 138.855 17.6922L124.752 17.6983C124.631 17.6983 124.567 17.756 124.567 17.8835V32.5787L124.573 32.5847Z" fill="white"/>
<path id="Vector_7" d="M150.018 1.44518C150.018 1.30245 150.134 1.18705 150.277 1.18705L162.312 1.1658C171.808 1.15061 179.515 8.36608 179.53 17.2852V17.5828C179.545 26.5019 171.859 33.7508 162.363 33.766L150.328 33.7872C150.186 33.7872 150.07 33.6718 150.07 33.5291L150.018 1.44822M154.194 2.39874V32.5421C154.194 32.7335 154.349 32.8853 154.537 32.8853H161.346C168.962 32.8853 175.142 26.6416 175.142 18.9463V15.9945C175.142 8.29623 168.962 2.05558 161.346 2.05558H154.537C154.346 2.05558 154.194 2.21046 154.194 2.39874Z" fill="white"/>
<path id="Vector_8" d="M246 33.0068V33.5777C246 33.6779 245.921 33.7569 245.821 33.7569H223.227C223.127 33.7569 223.048 33.6779 223.048 33.5777V1.35715C223.048 1.25694 223.127 1.17798 223.227 1.17798H245.35C245.45 1.17798 245.529 1.25694 245.529 1.35715V1.92807C245.529 2.02829 245.45 2.10724 245.35 2.10724H227.378C227.278 2.10724 227.199 2.1862 227.199 2.28641V16.5898C227.199 16.69 227.278 16.769 227.378 16.769H241.609C241.709 16.769 241.788 16.8479 241.788 16.9481V17.513C241.788 17.6132 241.709 17.6922 241.609 17.6922H227.372C227.272 17.6922 227.193 17.7711 227.193 17.8713V32.6424C227.193 32.7426 227.272 32.8216 227.372 32.8216H245.818C245.918 32.8216 245.997 32.9005 245.997 33.0007L246 33.0068Z" fill="white"/>
</g>
<defs>
<clipPath id="clip0_145_136">
<rect width="246" height="33.4869" fill="white" transform="translate(0 0.722656)"/>
</clipPath>
</defs>
</svg>
