<svg width="237" height="33" viewBox="0 0 237 33" fill="none" xmlns="http://www.w3.org/2000/svg">
<g id="Capa_1" clip-path="url(#clip0_145_76)">
<path id="Vector" d="M19.4177 4.33576C18.7184 3.23569 17.7354 2.4282 16.4773 1.9162C13.812 0.83076 11.1321 0.70788 8.42872 1.55341C5.91554 2.3375 3.65689 4.43816 3.82073 7.20003C3.98749 9.99701 6.57382 11.7817 8.9846 12.8408C10.6932 13.5898 13.3059 14.6869 16.8372 16.1322C20.7167 17.7238 23.5839 20.907 22.6155 25.3307C21.7173 29.4091 18.0016 31.4834 14.008 32.0686C10.3392 32.604 6.21103 32.0481 3.04542 29.9884C1.30754 28.8532 0.304026 27.3845 0.0319351 25.5852C-0.471287 22.1972 4.44683 21.8286 4.40587 25.1112C4.39124 26.2581 3.71833 26.972 2.39298 27.2528C2.19403 27.2938 2.14722 27.4021 2.25547 27.5747C5.07878 32.171 15.1813 32.5279 18.5429 28.3383C20.3217 26.1264 19.8273 23.1949 17.6037 21.4424C16.492 20.5705 15.4416 19.9239 14.4498 19.5114C10.6376 17.9169 8.06301 16.8139 6.73473 16.1995C5.57323 15.6583 4.48779 14.9619 3.47842 14.0989C-0.977434 10.3101 0.213329 4.18655 5.10804 1.53878C9.16015 -0.664278 15.3509 -0.585284 19.21 2.32872C20.7547 3.49608 21.5447 4.95894 21.5798 6.72314C21.6412 9.72492 17.0947 9.643 17.2058 6.63537C17.2527 5.44168 17.9548 4.74828 19.3153 4.56104C19.4645 4.54056 19.4996 4.46449 19.4177 4.33576Z" fill="black"/>
<path id="Vector_2" d="M203.84 5.09946C201.362 0.725524 194.683 0.517799 190.455 1.79048C184.873 3.47277 181.991 8.40551 181.47 14.017C181.022 18.8854 181.944 24.2512 185.37 27.7269C188.544 30.954 192.69 32.0072 197.801 30.8925C199.677 30.48 201.21 29.4911 202.398 27.92C202.784 27.4109 202.974 26.7468 202.959 25.9364C202.933 24.5028 202.933 22.1183 202.951 18.7742C202.956 18.6221 203.033 18.546 203.179 18.546H206.66C206.763 18.546 206.845 18.6279 206.845 18.7303V31.308C206.845 32.016 206.619 32.0979 206.172 31.542L203.986 28.8357C203.904 28.7333 203.758 28.7246 203.662 28.8153C202.076 30.3278 200.136 31.3284 197.831 31.817C193.641 32.7035 188.855 32.1681 185.139 29.968C179.966 26.9048 177.321 22.2324 177.207 15.9421C177.166 13.7859 177.655 11.5799 178.679 9.31248C180.835 4.51724 185.273 1.35163 190.458 0.377365C195.218 -0.520828 201.859 0.225228 204.785 4.32122C205.768 5.6963 206.099 7.0392 205.789 8.33822C205.274 10.4945 202.222 10.5647 201.394 8.53132C200.715 6.85489 201.935 5.34229 203.729 5.28963C203.825 5.28963 203.887 5.18138 203.84 5.09653V5.09946Z" fill="black"/>
<path id="Vector_3" d="M33.3677 30.6964C33.3677 30.8485 33.4438 30.9304 33.6018 30.9304L51.1297 30.9363C51.4047 30.9363 51.5364 31.0884 51.5276 31.3839L51.5218 31.5419C51.513 31.735 51.4047 31.8316 51.2116 31.8316L29.5087 31.8374C29.4326 31.8374 29.3654 31.7701 29.3654 31.6941V0.628872C29.3654 0.497215 29.4326 0.429924 29.5643 0.429924L50.7523 0.424072C50.9512 0.424072 51.0478 0.526472 51.0419 0.72542V1.02677C51.0419 1.22572 50.9454 1.32226 50.7552 1.32226L33.5637 1.33104C33.4555 1.33104 33.3648 1.41881 33.3648 1.52999L33.3589 15.1492C33.3589 15.354 33.4672 15.4593 33.6691 15.4593H47.1098C47.2941 15.4593 47.4404 15.5968 47.4462 15.7811L47.455 16.0093C47.4638 16.2375 47.3585 16.3546 47.1303 16.3546H33.5433C33.4262 16.3546 33.3648 16.4101 33.3648 16.533V30.6905L33.3677 30.6964Z" fill="black"/>
<path id="Vector_4" d="M78.4119 31.1033V31.6592C78.4119 31.7558 78.3359 31.8318 78.2393 31.8318H57.578C57.4814 31.8318 57.4053 31.7558 57.4053 31.6592V0.611582C57.4053 0.515033 57.4814 0.438965 57.578 0.438965H61.2263C61.3229 0.438965 61.3989 0.515033 61.3989 0.611582V30.7581C61.3989 30.8546 61.475 30.9307 61.5715 30.9307H78.2364C78.3329 30.9307 78.409 31.0068 78.409 31.1033H78.4119Z" fill="black"/>
<path id="Vector_5" d="M97.6163 27.5047L109.348 0.749074C109.445 0.535497 109.609 0.427246 109.849 0.427246H110.337C110.577 0.427246 110.653 0.538423 110.557 0.757851L97.1891 31.235C96.7561 32.2239 95.3489 32.2239 94.9159 31.2291L81.522 0.579383C81.4927 0.512092 81.5425 0.436023 81.6127 0.436023H85.4922C85.5741 0.436023 85.6443 0.482835 85.6765 0.553052L97.4554 27.5047C97.4846 27.5749 97.587 27.5749 97.6192 27.5047H97.6163Z" fill="black"/>
<path id="Vector_6" d="M120.015 30.6964C120.015 30.8485 120.092 30.9304 120.25 30.9304L137.777 30.9363C138.052 30.9363 138.184 31.0855 138.175 31.3839L138.17 31.5419C138.161 31.735 138.052 31.8316 137.859 31.8316L116.156 31.8374C116.08 31.8374 116.013 31.776 116.013 31.6941L116.007 0.628872C116.007 0.497215 116.075 0.429924 116.206 0.429924L137.397 0.424072C137.59 0.424072 137.687 0.526472 137.687 0.72542V1.02677C137.681 1.22572 137.59 1.32226 137.4 1.32226L120.209 1.33104C120.097 1.33104 120.01 1.41881 120.01 1.52999L120.004 15.1492C120.004 15.354 120.106 15.4593 120.314 15.4593L133.755 15.4534C133.939 15.4534 134.085 15.5968 134.091 15.7753L134.1 16.0035C134.109 16.2375 134.003 16.3487 133.775 16.3487L120.188 16.3546C120.071 16.3546 120.01 16.4101 120.01 16.533V30.6905L120.015 30.6964Z" fill="black"/>
<path id="Vector_7" d="M144.53 0.696434C144.53 0.558926 144.641 0.447749 144.779 0.447749L156.373 0.427269C165.522 0.412641 172.947 7.36413 172.962 15.9569V16.2437C172.977 24.8365 165.572 31.8201 156.423 31.8348L144.828 31.8552C144.691 31.8552 144.58 31.7441 144.58 31.6066L144.53 0.69936M148.553 1.61511V30.6557C148.553 30.84 148.702 30.9863 148.883 30.9863H155.443C162.781 30.9863 168.734 24.971 168.734 17.5573V14.7135C168.734 7.29683 162.781 1.2845 155.443 1.2845H148.883C148.699 1.2845 148.553 1.43371 148.553 1.61511Z" fill="black"/>
<path id="Vector_8" d="M237 31.1033V31.6534C237 31.7499 236.924 31.826 236.827 31.826H215.06C214.964 31.826 214.888 31.7499 214.888 31.6534V0.611582C214.888 0.515033 214.964 0.438965 215.06 0.438965H236.374C236.47 0.438965 236.547 0.515033 236.547 0.611582V1.16162C236.547 1.25816 236.47 1.33423 236.374 1.33423H219.06C218.963 1.33423 218.887 1.4103 218.887 1.50685V15.2869C218.887 15.3835 218.963 15.4596 219.06 15.4596H232.769C232.866 15.4596 232.942 15.5356 232.942 15.6322V16.1764C232.942 16.2729 232.866 16.349 232.769 16.349H219.054C218.957 16.349 218.881 16.425 218.881 16.5216V30.7522C218.881 30.8488 218.957 30.9249 219.054 30.9249H236.824C236.921 30.9249 236.997 31.0009 236.997 31.0975L237 31.1033Z" fill="black"/>
</g>
<defs>
<clipPath id="clip0_145_76">
<rect width="237" height="32.2618" fill="white"/>
</clipPath>
</defs>
</svg>
