<svg width="237" height="33" viewBox="0 0 237 33" fill="none" xmlns="http://www.w3.org/2000/svg">
<g id="Capa_1" clip-path="url(#clip0_145_206)">
<path id="Vector" d="M19.418 4.94843C18.7187 3.84836 17.7357 3.04087 16.4777 2.52887C13.8123 1.44343 11.1324 1.32055 8.42903 2.16608C5.91584 2.95017 3.65719 5.05083 3.82103 7.8127C3.9878 10.6097 6.57413 12.3944 8.98491 13.4535C10.6935 14.2024 13.3062 15.2996 16.8375 16.7449C20.717 18.3365 23.5842 21.5196 22.6158 25.9433C21.7176 30.0218 18.0019 32.0961 14.0084 32.6812C10.3395 33.2166 6.21134 32.6607 3.04572 30.601C1.30785 29.4659 0.304331 27.9972 0.0322402 26.1979C-0.470982 22.8099 4.44714 22.4412 4.40618 25.7239C4.39155 26.8708 3.71863 27.5846 2.39329 27.8655C2.19434 27.9065 2.14753 28.0147 2.25578 28.1873C5.07909 32.7836 15.1816 33.1406 18.5432 28.9509C20.322 26.7391 19.8276 23.8076 17.604 22.0551C16.4923 21.1832 15.4419 20.5366 14.4501 20.1241C10.6379 18.5296 8.06331 17.4266 6.73504 16.8122C5.57353 16.2709 4.4881 15.5746 3.47873 14.7115C-0.977129 10.9227 0.213634 4.79922 5.10835 2.15145C9.16045 -0.051607 15.3513 0.0273872 19.2103 2.94139C20.755 4.10875 21.545 5.57161 21.5801 7.33581C21.6415 10.3376 17.095 10.2557 17.2062 7.24804C17.253 6.05435 17.9551 5.36096 19.3156 5.17371C19.4648 5.15323 19.4999 5.07716 19.418 4.94843Z" fill="white"/>
<path id="Vector_2" d="M203.84 5.71201C201.362 1.33807 194.683 1.13035 190.455 2.40303C184.873 4.08531 181.991 9.01806 181.47 14.6296C181.023 19.4979 181.944 24.8637 185.37 28.3394C188.545 31.5665 192.69 32.6198 197.802 31.5051C199.677 31.0925 201.21 30.1036 202.398 28.5325C202.784 28.0235 202.974 27.3593 202.96 26.5489C202.933 25.1153 202.933 22.7309 202.951 19.3868C202.957 19.2346 203.033 19.1586 203.179 19.1586H206.661C206.763 19.1586 206.845 19.2405 206.845 19.3429V31.9205C206.845 32.6285 206.62 32.7104 206.172 32.1546L203.986 29.4483C203.905 29.3459 203.758 29.3371 203.662 29.4278C202.076 30.9404 200.136 31.941 197.831 32.4296C193.641 33.3161 188.855 32.7807 185.139 30.5805C179.966 27.5173 177.322 22.845 177.207 16.5547C177.166 14.3984 177.655 12.1925 178.679 9.92503C180.835 5.12979 185.274 1.96417 190.458 0.989914C195.218 0.0917212 201.859 0.837777 204.785 4.93377C205.768 6.30885 206.099 7.65175 205.789 8.95077C205.274 11.107 202.222 11.1772 201.394 9.14386C200.716 7.46743 201.936 5.95484 203.729 5.90218C203.826 5.90218 203.887 5.79393 203.84 5.70908V5.71201Z" fill="white"/>
<path id="Vector_3" d="M33.3676 31.3089C33.3676 31.4611 33.4437 31.543 33.6017 31.543L51.1296 31.5488C51.4046 31.5488 51.5363 31.701 51.5275 31.9965L51.5216 32.1545C51.5129 32.3476 51.4046 32.4441 51.2115 32.4441L29.5086 32.45C29.4325 32.45 29.3652 32.3827 29.3652 32.3066V1.24142C29.3652 1.10976 29.4325 1.04247 29.5642 1.04247L50.7522 1.03662C50.9511 1.03662 51.0477 1.13902 51.0418 1.33797V1.63932C51.0418 1.83827 50.9453 1.93481 50.7551 1.93481L33.5636 1.94359C33.4554 1.94359 33.3647 2.03136 33.3647 2.14254L33.3588 15.7617C33.3588 15.9665 33.4671 16.0718 33.669 16.0718H47.1097C47.294 16.0718 47.4403 16.2093 47.4461 16.3937L47.4549 16.6219C47.4637 16.8501 47.3583 16.9671 47.1301 16.9671H33.5431C33.4261 16.9671 33.3647 17.0227 33.3647 17.1456V31.3031L33.3676 31.3089Z" fill="white"/>
<path id="Vector_4" d="M78.4119 31.7156V32.2715C78.4119 32.3681 78.3358 32.4441 78.2393 32.4441H57.5779C57.4813 32.4441 57.4053 32.3681 57.4053 32.2715V1.22389C57.4053 1.12734 57.4813 1.05127 57.5779 1.05127H61.2262C61.3228 1.05127 61.3989 1.12734 61.3989 1.22389V31.3704C61.3989 31.4669 61.4749 31.543 61.5715 31.543H78.2363C78.3329 31.543 78.4089 31.6191 78.4089 31.7156H78.4119Z" fill="white"/>
<path id="Vector_5" d="M97.6156 28.1169L109.348 1.36126C109.444 1.14768 109.608 1.03943 109.848 1.03943H110.337C110.576 1.03943 110.653 1.15061 110.556 1.37003L97.1884 31.8471C96.7554 32.836 95.3481 32.836 94.9151 31.8413L81.5212 1.19157C81.492 1.12427 81.5417 1.04821 81.6119 1.04821H85.4914C85.5733 1.04821 85.6436 1.09502 85.6757 1.16523L97.4546 28.1169C97.4839 28.1871 97.5863 28.1871 97.6185 28.1169H97.6156Z" fill="white"/>
<path id="Vector_6" d="M120.016 31.3089C120.016 31.4611 120.092 31.543 120.25 31.543L137.778 31.5488C138.053 31.5488 138.185 31.6981 138.176 31.9965L138.17 32.1545C138.161 32.3476 138.053 32.4441 137.86 32.4441L116.157 32.45C116.081 32.45 116.014 32.3885 116.014 32.3066L116.008 1.24142C116.008 1.10976 116.075 1.04247 116.207 1.04247L137.398 1.03662C137.591 1.03662 137.687 1.13902 137.687 1.33797V1.63932C137.681 1.83827 137.591 1.93481 137.401 1.93481L120.209 1.94359C120.098 1.94359 120.01 2.03136 120.01 2.14254L120.004 15.7617C120.004 15.9665 120.107 16.0718 120.314 16.0718L133.755 16.066C133.939 16.066 134.086 16.2093 134.092 16.3878L134.1 16.616C134.109 16.8501 134.004 16.9613 133.776 16.9613L120.189 16.9671C120.072 16.9671 120.01 17.0227 120.01 17.1456V31.3031L120.016 31.3089Z" fill="white"/>
<path id="Vector_7" d="M144.53 1.30862C144.53 1.17111 144.641 1.05993 144.779 1.05993L156.374 1.03945C165.522 1.02482 172.948 7.97631 172.962 16.5691V16.8558C172.977 25.4486 165.572 32.4323 156.423 32.4469L144.829 32.4674C144.691 32.4674 144.58 32.3562 144.58 32.2187L144.53 1.31154M148.553 2.22729V31.2679C148.553 31.4522 148.702 31.5985 148.884 31.5985H155.443C162.781 31.5985 168.735 25.5832 168.735 18.1695V15.3257C168.735 7.90902 162.781 1.89668 155.443 1.89668H148.884C148.699 1.89668 148.553 2.0459 148.553 2.22729Z" fill="white"/>
<path id="Vector_8" d="M237 31.7156V32.2657C237 32.3622 236.924 32.4383 236.828 32.4383H215.06C214.964 32.4383 214.888 32.3622 214.888 32.2657V1.22389C214.888 1.12734 214.964 1.05127 215.06 1.05127H236.374C236.471 1.05127 236.547 1.12734 236.547 1.22389V1.77392C236.547 1.87047 236.471 1.94654 236.374 1.94654H219.06C218.963 1.94654 218.887 2.02261 218.887 2.11915V15.8992C218.887 15.9958 218.963 16.0719 219.06 16.0719H232.77C232.866 16.0719 232.942 16.1479 232.942 16.2445V16.7887C232.942 16.8852 232.866 16.9613 232.77 16.9613H219.054C218.957 16.9613 218.881 17.0373 218.881 17.1339V31.3645C218.881 31.4611 218.957 31.5372 219.054 31.5372H236.825C236.921 31.5372 236.997 31.6132 236.997 31.7098L237 31.7156Z" fill="white"/>
</g>
<defs>
<clipPath id="clip0_145_206">
<rect width="237" height="32.2618" fill="white" transform="translate(0 0.612549)"/>
</clipPath>
</defs>
</svg>
