<svg width="17" height="20" viewBox="0 0 17 20" fill="none" xmlns="http://www.w3.org/2000/svg">
<g id="arrow-right-solid 1" clip-path="url(#clip0_103_236)">
<path id="Vector" d="M16.6433 10.5718C17.1176 10.0975 17.1176 9.32717 16.6433 8.85284L10.5719 2.78141C10.0975 2.30708 9.32723 2.30708 8.8529 2.78141C8.37857 3.25574 8.37857 4.02605 8.8529 4.50038L12.8562 8.49993H1.21429C0.542634 8.49993 0 9.04257 0 9.71422C0 10.3859 0.542634 10.9285 1.21429 10.9285H12.8525L8.8567 14.9281C8.38237 15.4024 8.38237 16.1727 8.8567 16.647C9.33103 17.1214 10.1013 17.1214 10.5757 16.647L16.6471 10.5756L16.6433 10.5718Z" fill="black"/>
</g>
<defs>
<clipPath id="clip0_103_236">
<rect width="17" height="19.4286" fill="white"/>
</clipPath>
</defs>
</svg>
