<svg width="31" height="36" viewBox="0 0 31 36" fill="none" xmlns="http://www.w3.org/2000/svg">
<g id="arrow-right-solid 3" clip-path="url(#clip0_53_904)">
<path id="Vector" d="M30.3496 19.8496C31.2145 18.9846 31.2145 17.5799 30.3496 16.715L19.2781 5.64353C18.4132 4.77857 17.0085 4.77857 16.1435 5.64353C15.2786 6.50848 15.2786 7.91317 16.1435 8.77813L23.4438 16.0714L2.21429 16.0714C0.989509 16.0714 0 17.0609 0 18.2857C0 19.5105 0.989509 20.5 2.21429 20.5L23.4368 20.5L16.1504 27.7933C15.2855 28.6583 15.2855 30.0629 16.1504 30.9279C17.0154 31.7929 18.4201 31.7929 19.285 30.9279L30.3565 19.8565L30.3496 19.8496Z" fill="white"/>
</g>
<defs>
<clipPath id="clip0_53_904">
<rect width="31" height="35.4286" fill="white" transform="translate(0 0.571533)"/>
</clipPath>
</defs>
</svg>
